<?xml version="1.0" encoding="UTF-8"?>
<!DOCTYPE svg PUBLIC "-//W3C//DTD SVG 1.1//EN" "http://www.w3.org/Graphics/SVG/1.1/DTD/svg11.dtd">
<!-- Creator: CorelDRAW 2018 (64-Bit) -->
<svg xmlns="http://www.w3.org/2000/svg" xml:space="preserve" width="3.93701in" height="3.93701in" version="1.1" style="shape-rendering:geometricPrecision; text-rendering:geometricPrecision; image-rendering:optimizeQuality; fill-rule:evenodd; clip-rule:evenodd"
viewBox="0 0 631.5 631.5"
 xmlns:xlink="http://www.w3.org/1999/xlink">
 <defs>
  <style type="text/css">
   <![CDATA[
    .fil0 {fill:#1C4281}
    .fil1 {fill:#FFED00;fill-rule:nonzero}
   ]]>
  </style>
 </defs>
 <g id="Layer_x0020_1">
  <metadata id="CorelCorpID_0Corel-Layer"/>
  <g id="_2460647414480">
   <rect class="fil0" x="-0" y="-0" width="631.5" height="631.5" rx="95.3" ry="95.3"/>
   <g>
    <g>
     <path class="fil1" d="M92.82 315.75c0,122.92 100.01,222.92 222.92,222.92 122.93,0 222.93,-100 222.93,-222.92 0,-122.93 -100.01,-222.93 -222.93,-222.93 -122.91,0 -222.92,100 -222.92,222.93zm15.97 0l0 0c0,-114.12 92.84,-206.96 206.95,-206.96 114.12,0 206.96,92.83 206.96,206.96 0,114.11 -92.84,206.96 -206.96,206.96 -114.11,0 -206.95,-92.84 -206.95,-206.96z"/>
     <polygon class="fil1" points="303.78,133.65 303.78,160.32 327.72,160.32 327.72,133.65 "/>
     <polygon class="fil1" points="221.93,159.64 235.27,182.74 240.8,179.55 227.46,156.45 "/>
     <polygon class="fil1" points="156.44,227.47 179.55,240.81 182.74,235.27 159.63,221.94 "/>
     <polygon class="fil1" points="133.64,303.78 133.64,327.72 160.31,327.72 160.31,303.78 "/>
     <polygon class="fil1" points="156.44,404.03 159.63,409.57 182.74,396.23 179.55,390.7 "/>
     <polygon class="fil1" points="221.93,471.87 227.46,475.06 240.8,451.96 235.27,448.77 "/>
     <polygon class="fil1" points="303.78,471.18 303.78,497.86 327.72,497.86 327.72,471.18 "/>
     <polygon class="fil1" points="390.7,451.96 404.04,475.06 409.56,471.87 396.22,448.77 "/>
     <polygon class="fil1" points="448.76,396.23 471.86,409.57 475.05,404.03 451.95,390.7 "/>
     <polygon class="fil1" points="471.18,303.78 471.18,327.72 497.86,327.72 497.86,303.78 "/>
     <polygon class="fil1" points="448.76,235.27 451.95,240.79 475.05,227.47 471.86,221.94 "/>
     <polygon class="fil1" points="390.7,179.55 396.22,182.74 409.56,159.64 404.04,156.45 "/>
     <polygon class="fil1" points="307.77,361 323.73,361 323.73,331.71 361,331.71 361,299.79 323.73,299.79 323.73,185.5 307.77,185.5 307.77,299.79 220.95,299.79 220.95,331.71 307.77,331.71 "/>
    </g>
   </g>
  </g>
 </g>
</svg>
