<?xml version="1.0" encoding="UTF-8" standalone="no"?>
<!DOCTYPE svg PUBLIC "-//W3C//DTD SVG 1.1//EN" "http://www.w3.org/Graphics/SVG/1.1/DTD/svg11.dtd">
<svg width="100%" height="100%" viewBox="0 0 284 284" version="1.1" xmlns="http://www.w3.org/2000/svg" xmlns:xlink="http://www.w3.org/1999/xlink" xml:space="preserve" xmlns:serif="http://www.serif.com/" style="fill-rule:evenodd;clip-rule:evenodd;stroke-linejoin:round;stroke-miterlimit:2;">
    <g id="Layer_x0020_1">
        <g id="_2460647414480">
            <path d="M283.465,42.778C283.465,19.168 264.297,0 240.687,0L42.778,0C19.168,0 0,19.168 0,42.778L0,240.687C0,264.297 19.168,283.465 42.778,283.465L240.687,283.465C264.297,283.465 283.465,264.297 283.465,240.687L283.465,42.778Z" style="fill:rgb(28,66,129);"/>
            <g>
                <g>
                    <path d="M41.665,141.732C41.665,196.908 86.557,241.796 141.728,241.796C196.908,241.796 241.796,196.908 241.796,141.732C241.796,86.552 196.904,41.665 141.728,41.665C86.557,41.665 41.665,86.552 41.665,141.732ZM48.833,141.732C48.833,90.507 90.507,48.833 141.728,48.833C192.954,48.833 234.627,90.502 234.627,141.732C234.627,192.954 192.954,234.632 141.728,234.632C90.507,234.632 48.833,192.958 48.833,141.732Z" style="fill:rgb(0,255,133);fill-rule:nonzero;"/>
                    <path d="M136.359,59.992L136.359,71.964L147.105,71.964L147.105,59.992L136.359,59.992Z" style="fill:rgb(0,255,133);fill-rule:nonzero;"/>
                    <path d="M99.619,71.658L105.607,82.027L108.089,80.596L102.101,70.227L99.619,71.658Z" style="fill:rgb(0,255,133);fill-rule:nonzero;"/>
                    <path d="M70.222,102.106L80.596,108.094L82.027,105.607L71.654,99.623L70.222,102.106Z" style="fill:rgb(0,255,133);fill-rule:nonzero;"/>
                    <path d="M59.988,136.359L59.988,147.105L71.959,147.105L71.959,136.359L59.988,136.359Z" style="fill:rgb(0,255,133);fill-rule:nonzero;"/>
                    <path d="M70.222,181.359L71.654,183.846L82.027,177.858L80.596,175.376L70.222,181.359Z" style="fill:rgb(0,255,133);fill-rule:nonzero;"/>
                    <path d="M99.619,211.811L102.101,213.243L108.089,202.874L105.607,201.442L99.619,211.811Z" style="fill:rgb(0,255,133);fill-rule:nonzero;"/>
                    <path d="M136.359,211.501L136.359,223.477L147.105,223.477L147.105,211.501L136.359,211.501Z" style="fill:rgb(0,255,133);fill-rule:nonzero;"/>
                    <path d="M175.376,202.874L181.364,213.243L183.841,211.811L177.853,201.442L175.376,202.874Z" style="fill:rgb(0,255,133);fill-rule:nonzero;"/>
                    <path d="M201.437,177.858L211.806,183.846L213.238,181.359L202.869,175.376L201.437,177.858Z" style="fill:rgb(0,255,133);fill-rule:nonzero;"/>
                    <path d="M211.501,136.359L211.501,147.105L223.477,147.105L223.477,136.359L211.501,136.359Z" style="fill:rgb(0,255,133);fill-rule:nonzero;"/>
                    <path d="M201.437,105.607L202.869,108.085L213.238,102.106L211.806,99.623L201.437,105.607Z" style="fill:rgb(0,255,133);fill-rule:nonzero;"/>
                    <path d="M175.376,80.596L177.853,82.027L183.841,71.658L181.364,70.227L175.376,80.596Z" style="fill:rgb(0,255,133);fill-rule:nonzero;"/>
                    <path d="M138.15,162.044L145.314,162.044L145.314,148.896L162.044,148.896L162.044,134.568L145.314,134.568L145.314,83.266L138.15,83.266L138.15,134.568L99.179,134.568L99.179,148.896L138.15,148.896L138.15,162.044Z" style="fill:rgb(0,255,133);fill-rule:nonzero;"/>
                </g>
            </g>
        </g>
    </g>
</svg>
